<svg xmlns="http://www.w3.org/2000/svg" version="1.1" xmlns:xlink="http://www.w3.org/1999/xlink" viewBox="0 0 200 200"><rect width="200" height="200" fill="url('#gradient')"></rect><defs><linearGradient id="gradient" gradientTransform="rotate(45 0.5 0.5)"><stop offset="0%" stop-color="#cfecec"></stop><stop offset="100%" stop-color="#abc7db"></stop></linearGradient></defs><g><g fill="#8d8c39" transform="matrix(1.1726368658965343,0,0,1.1726368658965343,42.58773799872052,106.41307353791372)" stroke="#2a4a46" stroke-width="0.2"><path d="M6.74-4.46L6.74-14.22L10.16-14.22L10.16-4.46Q10.16-3.11 9.53-2.04Q8.90-0.98 7.77-0.39Q6.64 0.20 5.25 0.20L5.25 0.20Q2.93 0.20 1.64-0.98Q0.35-2.15 0.35-4.30L0.35-4.30L3.79-4.30Q3.79-3.32 4.13-2.88Q4.46-2.44 5.25-2.44L5.25-2.44Q5.97-2.44 6.35-2.97Q6.74-3.51 6.74-4.46L6.74-4.46ZM11.76-4.82L11.75-5.38Q11.75-6.96 12.36-8.20Q12.98-9.43 14.13-10.10Q15.28-10.76 16.84-10.76L16.84-10.76Q19.21-10.76 20.58-9.29Q21.94-7.82 21.94-5.29L21.94-5.29L21.94-5.18Q21.94-2.71 20.57-1.25Q19.20 0.20 16.86 0.20L16.86 0.20Q14.60 0.20 13.23-1.16Q11.87-2.51 11.76-4.82L11.76-4.82ZM15.05-5.77L15.04-5.18Q15.04-3.71 15.50-3.03Q15.96-2.34 16.86-2.34L16.86-2.34Q18.61-2.34 18.65-5.05L18.65-5.05L18.65-5.38Q18.65-8.22 16.84-8.22L16.84-8.22Q15.19-8.22 15.05-5.77L15.05-5.77ZM33.20-5.36L33.20-5.20Q33.20-2.60 32.13-1.20Q31.05 0.20 29.10 0.20L29.10 0.20Q27.49 0.20 26.50-1.08L26.50-1.08L26.37 0L23.42 0L23.42-15L26.71-15L26.71-9.72Q27.63-10.76 29.08-10.76L29.08-10.76Q31.05-10.76 32.13-9.35Q33.20-7.93 33.20-5.36L33.20-5.36ZM29.90-5.40L29.90-5.40Q29.90-6.92 29.50-7.57Q29.09-8.22 28.25-8.22L28.25-8.22Q27.14-8.22 26.71-7.37L26.71-7.37L26.71-3.17Q27.13-2.33 28.27-2.33L28.27-2.33Q29.43-2.33 29.75-3.47L29.75-3.47Q29.90-4.02 29.90-5.40ZM42.14-3.78L42.14-3.78Q42.14-4.53 41.61-4.95Q41.07-5.37 39.74-5.82Q38.40-6.27 37.55-6.69L37.55-6.69Q34.79-8.05 34.79-10.42L34.79-10.42Q34.79-11.60 35.47-12.50Q36.16-13.41 37.42-13.91Q38.68-14.41 40.25-14.41L40.25-14.41Q41.79-14.41 43.00-13.87Q44.22-13.32 44.89-12.31Q45.57-11.30 45.57-10L45.57-10L42.15-10Q42.15-10.87 41.62-11.35Q41.08-11.83 40.18-11.83L40.18-11.83Q39.26-11.83 38.73-11.42Q38.19-11.02 38.19-10.39L38.19-10.39Q38.19-9.84 38.78-9.40Q39.37-8.96 40.84-8.48Q42.31-8.01 43.26-7.46L43.26-7.46Q45.57-6.13 45.57-3.80L45.57-3.80Q45.57-1.93 44.16-0.87Q42.75 0.20 40.30 0.20L40.30 0.20Q38.57 0.20 37.17-0.42Q35.77-1.04 35.06-2.12Q34.36-3.20 34.36-4.61L34.36-4.61L37.79-4.61Q37.79-3.47 38.38-2.92Q38.97-2.38 40.30-2.38L40.30-2.38Q41.15-2.38 41.65-2.75Q42.14-3.12 42.14-3.78ZM56.98-5.36L56.98-5.21Q56.98-2.74 55.87-1.27Q54.77 0.20 52.88 0.20L52.88 0.20Q51.43 0.20 50.49-0.87L50.49-0.87L50.49 4.06L47.20 4.06L47.20-10.57L50.27-10.57L50.37-9.59Q51.32-10.76 52.86-10.76L52.86-10.76Q54.81-10.76 55.90-9.32Q56.98-7.88 56.98-5.36L56.98-5.36ZM53.69-5.06L53.69-5.41Q53.69-8.22 52.05-8.22L52.05-8.22Q50.88-8.22 50.49-7.38L50.49-7.38L50.49-3.22Q50.92-2.34 52.07-2.34L52.07-2.34Q53.64-2.34 53.69-5.06L53.69-5.06ZM61.65-15L61.65-9.43Q62.71-10.76 64.35-10.76L64.35-10.76Q66.09-10.76 66.98-9.73Q67.87-8.69 67.89-6.67L67.89-6.67L67.89 0L64.59 0L64.59-6.59Q64.59-7.43 64.25-7.83Q63.91-8.22 63.09-8.22L63.09-8.22Q62.07-8.22 61.65-7.58L61.65-7.58L61.65 0L58.36 0L58.36-15L61.65-15ZM74.83 0.20L74.83 0.20Q72.40 0.20 70.90-1.25Q69.39-2.71 69.39-5.03L69.39-5.03L69.39-5.30Q69.39-6.92 70.00-8.16Q70.60-9.40 71.75-10.08Q72.90-10.76 74.48-10.76L74.48-10.76Q76.71-10.76 78.00-9.38Q79.29-8.00 79.29-5.53L79.29-5.53L79.29-4.25L72.74-4.25Q72.92-3.36 73.52-2.85Q74.11-2.34 75.06-2.34L75.06-2.34Q76.62-2.34 77.50-3.44L77.50-3.44L79.00-1.66Q78.39-0.81 77.26-0.31Q76.13 0.20 74.83 0.20ZM74.46-8.22L74.46-8.22Q73.02-8.22 72.74-6.31L72.74-6.31L76.06-6.31L76.06-6.56Q76.08-7.35 75.66-7.79Q75.24-8.22 74.46-8.22ZM87.06-10.64L87.00-7.59L85.92-7.67Q84.37-7.67 83.93-6.69L83.93-6.69L83.93 0L80.63 0L80.63-10.57L83.72-10.57L83.83-9.21Q84.66-10.76 86.14-10.76L86.14-10.76Q86.67-10.76 87.06-10.64L87.06-10.64ZM93.12 0.20L93.12 0.20Q90.68 0.20 89.18-1.25Q87.68-2.71 87.68-5.03L87.68-5.03L87.68-5.30Q87.68-6.92 88.28-8.16Q88.88-9.40 90.03-10.08Q91.18-10.76 92.76-10.76L92.76-10.76Q94.99-10.76 96.28-9.38Q97.57-8.00 97.57-5.53L97.57-5.53L97.57-4.25L91.03-4.25Q91.20-3.36 91.80-2.85Q92.39-2.34 93.34-2.34L93.34-2.34Q94.90-2.34 95.78-3.44L95.78-3.44L97.29-1.66Q96.67-0.81 95.54-0.31Q94.41 0.20 93.12 0.20ZM92.74-8.22L92.74-8.22Q91.30-8.22 91.03-6.31L91.03-6.31L94.35-6.31L94.35-6.56Q94.37-7.35 93.95-7.79Q93.53-8.22 92.74-8.22Z"></path></g></g></svg>